# xmcd
#
# Track frame offsets: 
#        150
#        34261
#        74532
#        96657
#        142565
#        174158
#        203102
#        250646
#        279337
#        309327
#
# Disc length: 4458 seconds
#
# Revision: 0
# Processed by: cddbd v1.5.2PL0 Copyright (c) Steve Scherf et al.
# Submitted via: ExactAudioCopyFreeDBPlugin 1.0
#
DISCID=8311680a
DTITLE=Grateful Dead - New Year's Eve 1987 [CD1]
DYEAR=1987
DGENRE=Psychedelic Rock
TTITLE0=Bertha ( Oakland Coliseum Arena 31st Dec 1987)
TTITLE1=Little Red Rooster ( Oakland Coliseum Arena 31st Dec 1987)
TTITLE2=When Push Comes To Shove ( Oakland Coliseum Arena 31st Dec 198
TTITLE2=7)
TTITLE3=Bird Song ( Oakland Coliseum Arena 31st Dec 1987)
TTITLE4=The Music Never Stopped ( Oakland Coliseum Arena 31st Dec 1987
TTITLE4=)
TTITLE5=Hell In A Bucket ( Oakland Coliseum Arena 31st Dec 1987)
TTITLE6=Uncle John's Band ( Oakland Coliseum Arena 31st Dec 1987)
TTITLE7=Lady With a Fan ( Oakland Coliseum Arena 31st Dec 1987)
TTITLE8=Terrapin Station ( Oakland Coliseum Arena 31st Dec 1987)
TTITLE9=The Other One ( Oakland Coliseum Arena 31st Dec 1987)
EXTD=
EXTT0=
EXTT1=
EXTT2=
EXTT3=
EXTT4=
EXTT5=
EXTT6=
EXTT7=
EXTT8=
EXTT9=
PLAYORDER=
